# xmcd
#
# Track frame offsets: 
#        150
#        1403
#        23146
#        34768
#        66212
#        82933
#        109224
#        133970
#        149318
#        198624
#
# Disc length: 2763 seconds
#
# Revision: 2
# Processed by: cddbd v1.5.2PL0 Copyright (c) Steve Scherf et al.
# Submitted via: ExactAudioCopy v1.0b1
#
DISCID=890ac90a
DTITLE=Hobo - Blues Jim Morrisonnak
DYEAR=1900
DGENRE=
TTITLE0=Invokáció
TTITLE1=Blues Jim Morrisonnak
TTITLE2=Vad srác
TTITLE3=Spion - az éjszaka tudománya
TTITLE4=Országúti fogadó blues
TTITLE5=Öten egyért - mindig is vonzódtam
TTITLE6=Alabama song
TTITLE7=A napra várva
TTITLE8=A zenének vége
TTITLE9=Séta a Pére Lachaise temetõben
EXTD=
EXTT0=
EXTT1=
EXTT2=
EXTT3=
EXTT4=
EXTT5=
EXTT6=
EXTT7=
EXTT8=
EXTT9=
PLAYORDER=
